<mxfile host="app.diagrams.net" modified="2023-11-23T06:25:55.486Z" agent="Mozilla/5.0 (Windows NT 10.0; Win64; x64) AppleWebKit/537.36 (KHTML, like Gecko) Chrome/119.0.0.0 Safari/537.36" etag="K4vNqa2ckC1cFHprgsFp" version="22.1.3" type="github">
  <diagram name="第 1 页" id="YkD3Th3B96LM1cyjSZfD">
    <mxGraphModel dx="1050" dy="530" grid="1" gridSize="10" guides="1" tooltips="1" connect="1" arrows="1" fold="1" page="1" pageScale="1" pageWidth="827" pageHeight="1169" math="0" shadow="0">
      <root>
        <mxCell id="0" />
        <mxCell id="1" parent="0" />
        <mxCell id="75izxtbrvuDu-2_VXdJB-7" value="Object" style="html=1;whiteSpace=wrap;" vertex="1" parent="1">
          <mxGeometry x="130" y="190" width="110" height="50" as="geometry" />
        </mxCell>
        <mxCell id="75izxtbrvuDu-2_VXdJB-12" value="" style="endArrow=open;endFill=1;endSize=12;html=1;rounded=0;entryX=0;entryY=0.5;entryDx=0;entryDy=0;" edge="1" parent="1" target="75izxtbrvuDu-2_VXdJB-13">
          <mxGeometry width="160" relative="1" as="geometry">
            <mxPoint x="240" y="214.5" as="sourcePoint" />
            <mxPoint x="400" y="214.5" as="targetPoint" />
          </mxGeometry>
        </mxCell>
        <mxCell id="75izxtbrvuDu-2_VXdJB-13" value="Object" style="html=1;whiteSpace=wrap;" vertex="1" parent="1">
          <mxGeometry x="390" y="140" width="110" height="50" as="geometry" />
        </mxCell>
        <mxCell id="75izxtbrvuDu-2_VXdJB-14" value="Object" style="html=1;whiteSpace=wrap;" vertex="1" parent="1">
          <mxGeometry x="390" y="220" width="110" height="50" as="geometry" />
        </mxCell>
        <mxCell id="75izxtbrvuDu-2_VXdJB-15" value="" style="endArrow=open;endFill=1;endSize=12;html=1;rounded=0;entryX=0;entryY=0.5;entryDx=0;entryDy=0;exitX=1;exitY=0.5;exitDx=0;exitDy=0;" edge="1" parent="1" source="75izxtbrvuDu-2_VXdJB-7" target="75izxtbrvuDu-2_VXdJB-14">
          <mxGeometry width="160" relative="1" as="geometry">
            <mxPoint x="250" y="224.5" as="sourcePoint" />
            <mxPoint x="400" y="175" as="targetPoint" />
          </mxGeometry>
        </mxCell>
      </root>
    </mxGraphModel>
  </diagram>
</mxfile>
